<svg width="274" height="28" viewBox="0 0 274 28" fill="none" xmlns="http://www.w3.org/2000/svg">
<path d="M0.144531 1.80957H4.31445L11.082 17.3613V23.6846H9.98828L4.31445 9.6709V27H0.144531V1.80957ZM19.251 1.80957H23.4209V27H19.251V9.6709L13.6113 23.6846H12.4834V17.4297L19.251 1.80957ZM38.5625 7.62012C39.8158 7.68848 40.9551 7.99609 41.9805 8.54297C43.0059 9.06706 43.8604 9.77344 44.5439 10.6621C45.2503 11.528 45.7972 12.542 46.1846 13.7041C46.5719 14.8662 46.7656 16.1081 46.7656 17.4297C46.7656 18.7513 46.5605 19.9932 46.1504 21.1553C45.763 22.2946 45.2161 23.2972 44.5098 24.1631C43.8034 25.0062 42.9375 25.6898 41.9121 26.2139C40.8867 26.738 39.7702 27.0456 38.5625 27.1367V23.8555C39.7018 23.6048 40.6247 22.887 41.3311 21.7021C42.0602 20.5173 42.4248 19.0931 42.4248 17.4297C42.4248 16.5866 42.3337 15.8005 42.1514 15.0713C41.9919 14.3193 41.7412 13.6471 41.3994 13.0547C41.0576 12.4622 40.6475 11.9723 40.1689 11.585C39.6904 11.1976 39.1549 10.9469 38.5625 10.833V7.62012ZM29.0264 17.3613C29.0264 16.0397 29.2201 14.8092 29.6074 13.6699C29.9948 12.5306 30.5417 11.5394 31.248 10.6963C31.9772 9.8304 32.8431 9.13542 33.8457 8.61133C34.8483 8.08724 35.9535 7.76823 37.1611 7.6543V10.833C36.0218 11.0837 35.1104 11.8014 34.4268 12.9863C33.7432 14.1712 33.4014 15.5954 33.4014 17.2588C33.4014 18.1019 33.4811 18.8994 33.6406 19.6514C33.8229 20.4033 34.0736 21.0755 34.3926 21.668C34.7116 22.2604 35.099 22.7503 35.5547 23.1377C36.0332 23.5251 36.5687 23.7643 37.1611 23.8555V27.1367C35.9079 27.0456 34.7799 26.738 33.7773 26.2139C32.7747 25.667 31.9202 24.9606 31.2139 24.0947C30.5075 23.2288 29.9606 22.2148 29.5732 21.0527C29.2087 19.8906 29.0264 18.6602 29.0264 17.3613ZM68.1963 0.442383V27H64.2656L64.0264 24.71V0.442383H68.1963ZM50.9014 17.0879C50.9014 15.3105 51.1406 13.818 51.6191 12.6104C52.1204 11.4027 52.7585 10.4229 53.5332 9.6709C54.3079 8.91895 55.1624 8.38346 56.0967 8.06445C57.0537 7.72266 57.988 7.55176 58.8994 7.55176C59.6058 7.55176 60.278 7.63151 60.916 7.79102C61.554 7.95052 62.1237 8.17839 62.625 8.47461V12.0977C62.2376 11.6875 61.8047 11.3571 61.3262 11.1064C60.8477 10.8558 60.3122 10.7305 59.7197 10.7305C59.0133 10.7305 58.3867 10.9128 57.8398 11.2773C57.293 11.6191 56.8258 12.0977 56.4385 12.7129C56.0739 13.3281 55.7891 14.0345 55.584 14.832C55.3789 15.6296 55.2764 16.484 55.2764 17.3955C55.2764 18.307 55.3903 19.1615 55.6182 19.959C55.846 20.7337 56.1536 21.4173 56.541 22.0098C56.9284 22.6022 57.3955 23.0693 57.9424 23.4111C58.512 23.7529 59.1273 23.9238 59.7881 23.9238C60.9046 23.9238 61.8503 23.4795 62.625 22.5908V26.1455C62.0781 26.4417 61.4401 26.6924 60.7109 26.8975C60.0046 27.0798 59.2526 27.1709 58.4551 27.1709C57.5436 27.1709 56.6436 27.0114 55.7549 26.6924C54.889 26.3506 54.1143 25.8037 53.4307 25.0518C52.5648 24.0719 51.9268 22.8643 51.5166 21.4287C51.1064 19.9704 50.9014 18.5234 50.9014 17.0879ZM73.5967 13.2256C73.5967 12.3597 73.7562 11.585 74.0752 10.9014C74.3942 10.195 74.8385 9.60254 75.4082 9.12402C75.9779 8.62272 76.6159 8.23535 77.3223 7.96191C78.0514 7.66569 78.8034 7.4834 79.5781 7.41504V10.833C78.9857 10.9469 78.5186 11.1862 78.1768 11.5508C77.8577 11.9154 77.6982 12.4281 77.6982 13.0889C77.6982 13.6357 77.8691 14.0801 78.2109 14.4219C78.5755 14.7409 79.0312 15.0257 79.5781 15.2764V18.9336C79.1908 18.8197 78.792 18.6943 78.3818 18.5576C77.9945 18.3981 77.6071 18.2272 77.2197 18.0449C76.012 17.4069 75.1006 16.7347 74.4854 16.0283C73.8929 15.3219 73.5967 14.3877 73.5967 13.2256ZM85.0127 11.79C84.3975 11.471 83.7367 11.2318 83.0303 11.0723C82.3467 10.9128 81.6631 10.8102 80.9795 10.7646V7.38086C82.0049 7.42643 82.9505 7.57454 83.8164 7.8252C84.6823 8.05306 85.5254 8.42904 86.3457 8.95312L85.0127 11.79ZM75.4082 22.6934C75.8639 23.0124 76.3994 23.3086 77.0146 23.582C77.6527 23.8555 78.4502 23.9922 79.4072 23.9922H79.5781V27.1709C79.0085 27.1709 78.4844 27.1481 78.0059 27.1025C77.5273 27.0798 77.0488 27.0114 76.5703 26.8975C76.1146 26.7607 75.6475 26.5785 75.1689 26.3506C74.6904 26.1227 74.1891 25.8265 73.665 25.4619L75.4082 22.6934ZM80.9795 15.8232C81.6631 16.0511 82.3581 16.3018 83.0645 16.5752C83.7708 16.8486 84.4089 17.1904 84.9785 17.6006C85.571 18.0107 86.0495 18.5234 86.4141 19.1387C86.8014 19.7311 86.9951 20.4831 86.9951 21.3945C86.9951 22.2832 86.8356 23.0579 86.5166 23.7188C86.1976 24.3796 85.7646 24.9492 85.2178 25.4277C84.6937 25.9062 84.0671 26.2822 83.3379 26.5557C82.6087 26.8291 81.8226 27.0114 80.9795 27.1025V23.8555C81.7542 23.7188 82.3467 23.4795 82.7568 23.1377C83.1898 22.7731 83.4062 22.2946 83.4062 21.7021C83.4062 21.1097 83.167 20.654 82.6885 20.335C82.2327 19.9932 81.6631 19.6969 80.9795 19.4463V15.8232ZM101.316 7.55176C102.547 7.66569 103.652 7.99609 104.632 8.54297C105.634 9.08984 106.489 9.79622 107.195 10.6621C107.902 11.528 108.437 12.5192 108.802 13.6357C109.189 14.7523 109.383 15.9144 109.383 17.1221C109.383 17.6689 109.349 18.2158 109.28 18.7627H97.5566V15.7549H105.452C105.452 15.1624 105.35 14.5928 105.145 14.0459C104.962 13.499 104.677 12.9977 104.29 12.542C103.925 12.0635 103.493 11.6647 102.991 11.3457C102.49 11.0267 101.932 10.833 101.316 10.7646V7.55176ZM101.18 23.7871C101.43 23.7871 101.738 23.7643 102.103 23.7188C102.49 23.6504 102.889 23.5479 103.299 23.4111C103.732 23.2516 104.153 23.0579 104.563 22.8301C104.996 22.6022 105.372 22.3288 105.691 22.0098L107.195 24.2998C106.443 25.234 105.566 25.9404 104.563 26.4189C103.561 26.8975 102.285 27.1367 100.735 27.1367C99.4821 27.1367 98.3086 26.8861 97.2148 26.3848C96.1211 25.8607 95.1868 25.1543 94.4121 24.2656C93.6374 23.377 93.0221 22.3402 92.5664 21.1553C92.1107 19.9704 91.8828 18.6943 91.8828 17.3271C91.8828 16.0283 92.0879 14.7979 92.498 13.6357C92.931 12.4736 93.512 11.4596 94.2412 10.5938C94.9704 9.70508 95.8135 8.9873 96.7705 8.44043C97.7503 7.89355 98.7985 7.58594 99.915 7.51758V10.7988C99.0719 10.9583 98.377 11.3001 97.8301 11.8242C97.2832 12.3483 96.8503 12.9521 96.5312 13.6357C96.235 14.2965 96.0186 14.9801 95.8818 15.6865C95.7679 16.3929 95.7109 16.9967 95.7109 17.498C95.7109 18.3867 95.8135 19.2184 96.0186 19.9932C96.2464 20.7451 96.5882 21.4059 97.0439 21.9756C97.4997 22.5225 98.0579 22.9668 98.7188 23.3086C99.4023 23.6276 100.223 23.7871 101.18 23.7871ZM118.748 7.72266L119.192 9.6709V27H115.057V7.72266H118.748ZM129.412 9.8418C129.799 10.2292 130.096 10.6849 130.301 11.209C130.529 11.7103 130.688 12.2458 130.779 12.8154C130.893 13.3623 130.962 13.9206 130.984 14.4902C131.007 15.0599 131.019 15.6182 131.019 16.165V26.3164V27H126.849V16.5068C126.849 15.7321 126.814 14.9915 126.746 14.2852C126.678 13.5788 126.518 12.9521 126.268 12.4053C126.017 11.8584 125.675 11.4368 125.242 11.1406C124.809 10.8216 124.205 10.6621 123.431 10.6621C123.112 10.6621 122.679 10.7191 122.132 10.833C121.608 10.9242 121.095 11.0837 120.594 11.3115V8.67969C121.209 8.36068 121.87 8.08724 122.576 7.85938C123.305 7.63151 124.012 7.51758 124.695 7.51758C125.721 7.51758 126.587 7.73405 127.293 8.16699C127.999 8.57715 128.706 9.13542 129.412 9.8418ZM157.884 5.70605C157.77 5.66048 157.633 5.58073 157.474 5.4668C157.314 5.35286 157.086 5.25033 156.79 5.15918C156.494 5.04525 156.118 4.9541 155.662 4.88574C155.206 4.81738 154.625 4.80599 153.919 4.85156V1.39941C154.922 1.4222 155.936 1.53613 156.961 1.74121C158.009 1.9235 158.852 2.21973 159.49 2.62988C159.354 2.92611 159.194 3.25651 159.012 3.62109C158.829 3.96289 158.659 4.29329 158.499 4.6123C158.34 4.90853 158.203 5.15918 158.089 5.36426C157.975 5.56934 157.907 5.68327 157.884 5.70605ZM146.092 8.44043C146.092 7.43783 146.263 6.53776 146.604 5.74023C146.946 4.94271 147.402 4.24772 147.972 3.65527C148.564 3.04004 149.248 2.56152 150.022 2.21973C150.82 1.85514 151.652 1.61589 152.518 1.50195V5.09082C151.788 5.34147 151.185 5.78581 150.706 6.42383C150.228 7.03906 149.988 7.66569 149.988 8.30371C149.988 9.19238 150.228 9.91016 150.706 10.457C151.185 11.0039 151.788 11.4824 152.518 11.8926V15.7891C151.766 15.4245 151.014 15.0371 150.262 14.627C149.51 14.194 148.826 13.6927 148.211 13.123C147.596 12.5534 147.083 11.8926 146.673 11.1406C146.285 10.3887 146.092 9.48861 146.092 8.44043ZM146.639 22.3857C146.958 22.568 147.356 22.7503 147.835 22.9326C148.336 23.0921 148.849 23.2516 149.373 23.4111C149.897 23.5479 150.421 23.6618 150.945 23.7529C151.469 23.8441 151.959 23.8896 152.415 23.8896H152.518V27.1367H152.449C151.902 27.1367 151.333 27.1025 150.74 27.0342C150.171 26.9886 149.59 26.8975 148.997 26.7607C148.405 26.624 147.835 26.4417 147.288 26.2139C146.764 25.9632 146.308 25.667 145.921 25.3252L146.639 22.3857ZM153.919 12.5762C154.671 12.918 155.434 13.2826 156.209 13.6699C157.007 14.0573 157.724 14.5358 158.362 15.1055C159 15.6523 159.524 16.3245 159.935 17.1221C160.345 17.9196 160.55 18.9108 160.55 20.0957C160.55 20.916 160.39 21.7135 160.071 22.4883C159.775 23.263 159.342 23.9694 158.772 24.6074C158.226 25.2227 157.542 25.7467 156.722 26.1797C155.901 26.6126 154.967 26.8975 153.919 27.0342V23.7529C155.787 23.2972 156.722 22.0553 156.722 20.0273C156.722 19.2298 156.46 18.569 155.936 18.0449C155.411 17.5208 154.739 17.0309 153.919 16.5752V12.5762Z" fill="#A18A68"/>
<path d="M184.065 1.80957V27H179.964V15.6523H170.462V12.8496H179.964V1.80957H184.065ZM164.891 1.80957H169.061V27H164.891V1.80957ZM189.91 14.2852C189.91 12.2572 190.149 10.4684 190.628 8.91895C191.129 7.34668 191.813 6.02507 192.679 4.9541C193.567 3.86035 194.604 3.02865 195.789 2.45898C196.997 1.86654 198.307 1.52474 199.72 1.43359V4.85156C198.945 4.94271 198.216 5.18197 197.532 5.56934C196.849 5.95671 196.256 6.52637 195.755 7.27832C195.254 8.03027 194.855 8.9873 194.559 10.1494C194.262 11.3115 194.103 12.6901 194.08 14.2852C194.103 15.903 194.262 17.293 194.559 18.4551C194.855 19.5944 195.254 20.5514 195.755 21.3262C196.279 22.1009 196.883 22.6934 197.566 23.1035C198.25 23.4909 198.968 23.7188 199.72 23.7871V27.1709C198.33 27.0798 197.031 26.7493 195.823 26.1797C194.616 25.5872 193.567 24.7555 192.679 23.6846C191.813 22.5908 191.129 21.2578 190.628 19.6855C190.149 18.1133 189.91 16.3132 189.91 14.2852ZM201.087 1.43359C202.477 1.50195 203.764 1.83236 204.949 2.4248C206.157 3.01725 207.194 3.86035 208.06 4.9541C208.948 6.02507 209.643 7.34668 210.145 8.91895C210.646 10.4684 210.896 12.2572 210.896 14.2852C210.896 16.3132 210.646 18.1133 210.145 19.6855C209.643 21.2578 208.948 22.5908 208.06 23.6846C207.194 24.7555 206.168 25.5872 204.983 26.1797C203.799 26.7493 202.5 27.0798 201.087 27.1709V23.7871C201.862 23.696 202.591 23.4567 203.274 23.0693C203.958 22.6592 204.55 22.0781 205.052 21.3262C205.553 20.5514 205.952 19.5944 206.248 18.4551C206.544 17.293 206.704 15.903 206.727 14.2852C206.704 12.6673 206.544 11.2887 206.248 10.1494C205.952 8.9873 205.542 8.03027 205.018 7.27832C204.516 6.50358 203.924 5.92253 203.24 5.53516C202.557 5.125 201.839 4.88574 201.087 4.81738V1.43359ZM216.639 1.80957H220.74V27H216.639V1.80957ZM223.885 1.80957C224.956 1.80957 226.015 1.98047 227.063 2.32227C228.112 2.66406 229.046 3.17676 229.866 3.86035C230.709 4.54395 231.382 5.37565 231.883 6.35547C232.407 7.3125 232.669 8.39486 232.669 9.60254C232.669 10.8786 232.452 12.0407 232.02 13.0889C231.587 14.1143 230.983 14.9801 230.208 15.6865C229.433 16.3929 228.499 16.9398 227.405 17.3271C226.312 17.7145 225.104 17.9082 223.782 17.9082H222.142V14.9004H224.5C225.001 14.9004 225.491 14.8206 225.97 14.6611C226.471 14.4788 226.927 14.194 227.337 13.8066C227.747 13.4193 228.077 12.8838 228.328 12.2002C228.579 11.4938 228.704 10.6279 228.704 9.60254C228.704 9.19238 228.647 8.72526 228.533 8.20117C228.419 7.6543 228.18 7.1416 227.815 6.66309C227.474 6.16178 226.984 5.75163 226.346 5.43262C225.708 5.09082 224.865 4.91992 223.816 4.91992H222.142V1.80957H223.885ZM237.317 1.80957H241.419V27H237.317V1.80957ZM244.563 1.80957C245.634 1.80957 246.694 1.98047 247.742 2.32227C248.79 2.66406 249.725 3.17676 250.545 3.86035C251.388 4.54395 252.06 5.37565 252.562 6.35547C253.086 7.3125 253.348 8.39486 253.348 9.60254C253.348 10.8786 253.131 12.0407 252.698 13.0889C252.265 14.1143 251.661 14.9801 250.887 15.6865C250.112 16.3929 249.178 16.9398 248.084 17.3271C246.99 17.7145 245.783 17.9082 244.461 17.9082H242.82V14.9004H245.179C245.68 14.9004 246.17 14.8206 246.648 14.6611C247.15 14.4788 247.605 14.194 248.016 13.8066C248.426 13.4193 248.756 12.8838 249.007 12.2002C249.257 11.4938 249.383 10.6279 249.383 9.60254C249.383 9.19238 249.326 8.72526 249.212 8.20117C249.098 7.6543 248.859 7.1416 248.494 6.66309C248.152 6.16178 247.662 5.75163 247.024 5.43262C246.386 5.09082 245.543 4.91992 244.495 4.91992H242.82V1.80957H244.563ZM258.133 1.80957H262.303V27H258.133V1.80957ZM272.83 15.6523H263.704V12.8496H272.83V15.6523ZM263.704 23.8896H273.89V27H263.704V23.8896ZM273.89 1.80957V4.91992H263.704V1.80957H273.89Z" fill="black"/>
</svg>
