<svg width="20" height="18" viewBox="0 0 20 18" fill="currentColor" xmlns="http://www.w3.org/2000/svg">
<path fill-rule="evenodd" clip-rule="evenodd" d="M2.37856 0.150054C2.28788 0.0533766 2.16128 -0.00146484 2.02877 -0.00146484C1.89627 -0.00146484 1.76967 0.0533766 1.67899 0.150054L1.14931 0.680054C1.05269 0.770787 0.997883 0.897468 0.997883 1.03005C0.997883 1.16264 1.05269 1.28932 1.14931 1.38005L3.74773 4.00005C2.05625 5.13216 0.765553 6.77014 0.0599735 8.68005C0.0226499 8.78273 0.00239364 8.89083 1.0041e-05 9.00005C-0.000518915 9.10632 0.019856 9.21166 0.0599735 9.31005C1.68479 13.3691 5.62406 16.022 9.99392 16.0001C11.6115 15.9906 13.2064 15.6181 14.6611 14.9101L17.6093 17.8501C17.7 17.9467 17.8266 18.0016 17.9591 18.0016C18.0916 18.0016 18.2182 17.9467 18.3089 17.8501L18.8385 17.3201C18.9352 17.2293 18.99 17.1026 18.99 16.9701C18.99 16.8375 18.9352 16.7108 18.8385 16.6201L2.37856 0.150054ZM9.99392 14.0001C6.6124 13.9924 3.5333 12.0498 2.06875 9.00005C2.73385 7.52815 3.82309 6.28852 5.19684 5.44005L7.35553 7.60005C6.80796 8.74728 7.04253 10.1153 7.94096 11.0143C8.83939 11.9132 10.2066 12.148 11.3531 11.6001L13.112 13.3601C12.1189 13.7572 11.063 13.9739 9.99392 14.0001ZM7.11567 2.40005C12.3856 0.892504 17.9421 3.61201 19.9878 8.70005C20.0041 8.79939 20.0041 8.90071 19.9878 9.00005C19.9911 9.11304 19.9706 9.22544 19.9279 9.33005C19.4434 10.684 18.6454 11.9039 17.5993 12.8901L16.1802 11.4701C16.9265 10.7779 17.519 9.9363 17.9191 9.00005C16.4545 5.95028 13.3754 4.00767 9.99392 4.00005C9.59581 4.00038 9.19828 4.03047 8.80465 4.09005L7.11567 2.40005Z" fill="currentColor"/>
</svg>
