<svg width="14" height="14" viewBox="0 0 14 14" fill="none" xmlns="http://www.w3.org/2000/svg">
<path d="M13.2134 1.95389H5.18157C4.96076 1.29805 4.34042 0.824219 3.61107 0.824219C2.88172 0.824219 2.26139 1.29805 2.04057 1.95389H0.786865C0.495631 1.95389 0.259521 2.19 0.259521 2.48124C0.259521 2.77247 0.495631 3.00858 0.786865 3.00858H2.04061C2.26142 3.66442 2.88176 4.13826 3.61111 4.13826C4.34046 4.13826 4.96079 3.66442 5.18161 3.00858H13.2134C13.5047 3.00858 13.7408 2.77247 13.7408 2.48124C13.7408 2.19 13.5047 1.95389 13.2134 1.95389ZM3.61107 3.08357C3.27895 3.08357 3.00874 2.81336 3.00874 2.48124C3.00874 2.14912 3.27895 1.87891 3.61107 1.87891C3.94319 1.87891 4.2134 2.14912 4.2134 2.48124C4.2134 2.81336 3.94319 3.08357 3.61107 3.08357Z" fill="#A18A68"/>
<path d="M13.2134 6.47269H11.9597C11.7388 5.81685 11.1185 5.34302 10.3892 5.34302C9.65985 5.34302 9.03951 5.81685 8.8187 6.47269H0.786865C0.495631 6.47269 0.259521 6.7088 0.259521 7.00004C0.259521 7.29127 0.495631 7.52738 0.786865 7.52738H8.8187C9.03951 8.18322 9.65988 8.65706 10.3892 8.65706C11.1185 8.65706 11.7389 8.18322 11.9597 7.52738H13.2134C13.5047 7.52738 13.7408 7.29127 13.7408 7.00004C13.7408 6.7088 13.5047 6.47269 13.2134 6.47269ZM10.3892 7.60237C10.0571 7.60237 9.78687 7.33216 9.78687 7.00004C9.78687 6.66792 10.0571 6.39771 10.3892 6.39771C10.7213 6.39771 10.9915 6.66792 10.9915 7.00004C10.9915 7.33216 10.7213 7.60237 10.3892 7.60237Z" fill="#A18A68"/>
<path d="M13.2134 10.9914H7.44096C7.22014 10.3355 6.59981 9.86169 5.87046 9.86169C5.14111 9.86169 4.52078 10.3355 4.29996 10.9914H0.786865C0.495631 10.9914 0.259521 11.2275 0.259521 11.5187C0.259521 11.8099 0.495631 12.0461 0.786865 12.0461H4.29996C4.52078 12.7019 5.14111 13.1757 5.87046 13.1757C6.59981 13.1757 7.22014 12.7019 7.44096 12.0461H13.2134C13.5047 12.0461 13.7408 11.8099 13.7408 11.5187C13.7408 11.2275 13.5047 10.9914 13.2134 10.9914ZM5.87046 12.1211C5.53834 12.1211 5.26813 11.8509 5.26813 11.5187C5.26813 11.1866 5.53834 10.9164 5.87046 10.9164C6.20258 10.9164 6.47279 11.1866 6.47279 11.5187C6.47279 11.8508 6.20258 12.1211 5.87046 12.1211Z" fill="#A18A68"/>
</svg>
