<svg width="13" height="13" viewBox="0 0 13 13" fill="currentColor" xmlns="http://www.w3.org/2000/svg">
<path d="M5.85049 11.9297C6.01088 12.0901 6.2265 12.1795 6.45263 12.1795C6.67613 12.1795 6.897 12.0875 7.05477 11.9297L11.7799 7.20462C12.4977 6.48678 12.8921 5.5323 12.8947 4.51997C12.8947 3.50501 12.5003 2.55052 11.7825 1.83269C11.0647 1.11485 10.1128 0.720438 9.09784 0.720438C8.10128 0.720438 7.16257 1.10171 6.45 1.79588C5.73479 1.09908 4.79346 0.715179 3.79427 0.715179C2.78194 0.715179 1.83009 1.10959 1.11225 1.8248C0.394415 2.54263 0 3.49712 0 4.51208C0 5.52441 0.397044 6.4789 1.11488 7.19673L5.85049 11.9297ZM1.56977 2.28232C2.16402 1.68807 2.95548 1.35939 3.7969 1.35939C4.63832 1.35939 5.43241 1.68807 6.02929 2.28495L6.22387 2.47953C6.28434 2.54001 6.36586 2.57419 6.45263 2.57419C6.53677 2.57419 6.62091 2.54001 6.68139 2.47953L6.87071 2.29021C7.46759 1.69333 8.25905 1.36465 9.1031 1.36465C9.94451 1.36465 10.736 1.69333 11.3302 2.28758C11.9271 2.88446 12.2532 3.67592 12.2532 4.51734C12.2532 5.35876 11.9245 6.15022 11.3276 6.7471L6.59988 11.4748C6.52362 11.5511 6.38426 11.5511 6.30538 11.4748L1.5724 6.74184C0.975519 6.14496 0.64684 5.3535 0.64684 4.51208C0.64684 3.67066 0.97552 2.8792 1.56977 2.28232Z" fill="currentColor" stroke="currentColor" stroke-width="0.154737"/>
</svg>
