<svg width="20" height="14" viewBox="0 0 20 14" fill="currentColor" xmlns="http://www.w3.org/2000/svg">
<path fill-rule="evenodd" clip-rule="evenodd" d="M9.99392 7.75104e-05C14.3881 -0.0450807 18.3582 2.61654 19.9878 6.70008C20.0041 6.79942 20.0041 6.90074 19.9878 7.00008C19.9911 7.11306 19.9706 7.22547 19.9279 7.33008C18.2967 11.3813 14.3588 14.0253 9.99392 14.0001C5.62406 14.0221 1.68479 11.3692 0.0599735 7.31008C0.019856 7.21168 -0.000518915 7.10635 1.0041e-05 7.00008C0.0012875 6.88748 0.0215604 6.77591 0.0599735 6.67008C1.69114 2.61885 5.629 -0.02517 9.99392 7.75104e-05ZM2.06875 7.00008C3.5333 10.0499 6.6124 11.9925 9.99392 12.0001C13.3754 11.9925 16.4545 10.0499 17.9191 7.00008C16.4596 3.94606 13.3771 2.00207 9.99392 2.00207C6.61076 2.00207 3.52824 3.94606 2.06875 7.00008ZM9.99392 5.00008C11.0978 5.00008 11.9927 5.89551 11.9927 7.00008C11.9927 8.10465 11.0978 9.00008 9.99392 9.00008C8.89002 9.00008 7.99514 8.10465 7.99514 7.00008C7.99514 5.89551 8.89002 5.00008 9.99392 5.00008ZM5.99636 7.00008C5.99636 4.79094 7.78613 3.00008 9.99392 3.00008C12.2017 3.00008 13.9915 4.79094 13.9915 7.00008C13.9915 9.20922 12.2017 11.0001 9.99392 11.0001C7.78613 11.0001 5.99636 9.20922 5.99636 7.00008Z" fill="currentColor"/>
</svg>
