<svg width="22" height="19" viewBox="0 0 22 19" fill="currentColor" xmlns="http://www.w3.org/2000/svg">
<path fill-rule="evenodd" clip-rule="evenodd" d="M11.8128 0.37L21.9052 17.63C22.0351 17.8667 22.0351 18.1533 21.9052 18.39L21.7652 18.62C21.6355 18.8573 21.3854 19.0035 21.115 19H0.890216C0.619837 19.0035 0.369684 18.8573 0.240062 18.62L0.100029 18.39C-0.0298638 18.1533 -0.0298638 17.8667 0.100029 17.63L10.2124 0.37C10.3492 0.141211 10.596 0.0008087 10.8626 0H11.1626C11.4293 0.0008087 11.676 0.141211 11.8128 0.37ZM11.0026 3L2.79067 17H19.2045L11.0026 3ZM10.5025 13C10.2263 13 10.0024 13.2239 10.0024 13.5V14.5C10.0024 14.7761 10.2263 15 10.5025 15H11.5027C11.7789 15 12.0028 14.7761 12.0028 14.5V13.5C12.0028 13.2239 11.7789 13 11.5027 13H10.5025ZM10.2224 10.78L9.82233 7.56C9.80508 7.41735 9.85005 7.27417 9.94578 7.16698C10.0415 7.05979 10.1787 6.99896 10.3224 7H11.6828C11.8265 6.99896 11.9637 7.05979 12.0594 7.16698C12.1552 7.27417 12.2001 7.41735 12.1829 7.56L11.7828 10.78C11.7675 10.9062 11.6599 11.0009 11.5327 11H10.4725C10.3453 11.0009 10.2377 10.9062 10.2224 10.78Z" fill="currentColor"/>
</svg>
